<svg width="135" height="24" viewBox="0 0 135 24" fill="none" xmlns="http://www.w3.org/2000/svg">
<path d="M19.4155 0H3.11436C1.39435 0 0 1.40681 0 3.1422V20.8578C0 22.5932 1.39435 24 3.11436 24H19.4155C21.1355 24 22.5299 22.5932 22.5299 20.8578V3.1422C22.5299 1.40681 21.1355 0 19.4155 0Z" fill="#EE2B47"/>
<path d="M13.4445 20.5184L3.24219 3.52917H9.16806L19.4081 20.5184H13.4445ZM3.24219 20.5184V5.14257L8.1275 13.2212V20.5184H3.24219ZM19.4081 18.905L14.5228 10.7884V3.52917H19.4081V18.905Z" fill="white"/>
<path d="M37.8597 10.0715V13.8798H30.166V16.652H38.3376V20.75H24.8867V3.53973H38.3376V7.51718H30.166V10.0726H37.8597V10.0715Z" fill="#0D0D12"/>
<path d="M50.571 7.87876V20.751H45.3147V7.87876H40.1538V3.53973H55.7319V7.87876H50.571Z" fill="#0D0D12"/>
<path d="M70.9022 10.0715V13.8798H63.2085V16.652H71.38V20.75H57.9292V3.53973H71.38V7.51718H63.2085V10.0726H70.9022V10.0715Z" fill="#0D0D12"/>
<path d="M81.4631 15.3029H79.4081V20.751H74.1519V3.53973H83.2068C85.2931 3.53973 86.9258 4.05462 88.1047 5.08229C89.2835 6.11101 89.8725 7.55736 89.8725 9.42132C89.8725 10.6594 89.6094 11.7156 89.0844 12.591C88.5584 13.4675 87.8018 14.1378 86.8147 14.6041L90.4467 20.751H84.3542L81.4631 15.3029ZM82.2752 11.3255C83.0077 11.3255 83.5651 11.1563 83.9476 10.819C84.3301 10.4818 84.5208 10.0155 84.5208 9.42132C84.5208 8.82714 84.3301 8.36088 83.9476 8.02361C83.5651 7.68634 83.0077 7.51718 82.2752 7.51718H79.4081V11.3255H82.2752Z" fill="#0D0D12"/>
<path d="M92.4053 3.53973H97.6615V20.751H92.4053V3.53973Z" fill="#0D0D12"/>
<path d="M106.286 17.5211L105.354 20.751H99.8589L105.688 3.53973H112.856L118.685 20.751H113.095L112.139 17.5211H106.286ZM109.224 7.80687H109.129L107.361 13.9052H111.04L109.224 7.80687Z" fill="#0D0D12"/>
<path d="M120.884 3.53973H126.164V16.412H134.526V20.751H120.884V3.53973Z" fill="#0D0D12"/>
</svg>
