<svg width="29" height="28" viewBox="0 0 29 28" fill="none" xmlns="http://www.w3.org/2000/svg">
<path d="M24.7716 0L3.97353 0C1.77901 0 0 1.5997 0 3.57305L0 23.7176C0 25.691 1.77901 27.2907 3.97353 27.2907L24.7716 27.2907C26.9662 27.2907 28.7452 25.691 28.7452 23.7176L28.7452 3.57305C28.7452 1.5997 26.9662 0 24.7716 0Z" fill="#272835"/>
<path d="M16.8209 22.512L5.0332 4.77867L11.8799 4.77867L23.7112 22.512H16.8209ZM5.0332 22.512L5.0332 6.46272L10.6776 14.8951L10.6776 22.512H5.0332ZM23.7112 20.8279L18.0667 12.3558V4.77867L23.7112 4.77867L23.7112 20.8279Z" fill="white"/>
</svg>
