<svg width="177" height="30" viewBox="0 0 177 30" fill="none" xmlns="http://www.w3.org/2000/svg">
<g clip-path="url(#clip0_2804_33796)">
<mask id="mask0_2804_33796" style="mask-type:luminance" maskUnits="userSpaceOnUse" x="0" y="0" width="177" height="30">
<path d="M176.705 0H0V30H176.705V0Z" fill="white"/>
</mask>
<g mask="url(#mask0_2804_33796)">
<path d="M25.1987 0H4.04204C1.80968 0 0 1.71397 0 3.82826V25.4117C0 27.526 1.80968 29.24 4.04204 29.24H25.1987C27.4311 29.24 29.2408 27.526 29.2408 25.4117V3.82826C29.2408 1.71397 27.4311 0 25.1987 0Z" fill="#0D0D12"/>
<path d="M17.111 24.12L5.12012 5.12H12.0849L24.1201 24.12H17.111ZM5.12012 24.12V6.92435L10.8619 15.9591V24.12H5.12012ZM24.1201 22.3157L18.3784 13.2384V5.12H24.1201V22.3157Z" fill="white"/>
<path d="M49.536 12.6773V17.5175H39.7136V21.0409H50.1464V26.2492H32.9736V4.37563H50.1464V9.43081H39.7136V12.6787H49.536V12.6773Z" fill="#0D0D12"/>
<path d="M66.8677 9.88978V26.25H60.1569V9.88978H53.5681V4.375H73.4565V9.88978H66.8677Z" fill="#0D0D12"/>
<path d="M93.4403 12.6773V17.5175H83.6179V21.0409H94.0503V26.2492H76.8779V4.37563H94.0503V9.43081H83.6179V12.6787H93.4403V12.6773Z" fill="#0D0D12"/>
<path d="M106.807 19.3256H104.183V26.25H97.4727V4.375H109.033C111.696 4.375 113.781 5.02941 115.286 6.33553C116.791 7.643 117.543 9.48128 117.543 11.8503C117.543 13.4238 117.207 14.7662 116.537 15.8789C115.865 16.9929 114.899 17.8448 113.639 18.4374L118.276 26.25H110.498L106.807 19.3256ZM107.843 14.2704C108.779 14.2704 109.49 14.0554 109.979 13.6267C110.467 13.1981 110.711 12.6055 110.711 11.8503C110.711 11.0951 110.467 10.5025 109.979 10.0739C109.49 9.64522 108.779 9.43022 107.843 9.43022H104.183V14.2704H107.843Z" fill="#0D0D12"/>
<path d="M121.698 4.375H128.408V26.25H121.698V4.375Z" fill="#0D0D12"/>
<path d="M140.035 22.1448L138.846 26.25H131.83L139.272 4.375H148.423L155.866 26.25H148.728L147.508 22.1448H140.035ZM143.786 9.79841H143.665L141.408 17.5492H146.105L143.786 9.79841Z" fill="#0D0D12"/>
<path d="M159.288 4.375H166.029V20.7352H176.705V26.25H159.288V4.375Z" fill="#0D0D12"/>
</g>
</g>
<defs>
<clipPath id="clip0_2804_33796">
<rect width="177" height="30" fill="white"/>
</clipPath>
</defs>
</svg>
